<?xml version="1.0" standalone="no"?>
<!DOCTYPE svg PUBLIC "-//W3C//DTD SVG 20010904//EN"
 "http://www.w3.org/TR/2001/REC-SVG-20010904/DTD/svg10.dtd">
<svg version="1.0" xmlns="http://www.w3.org/2000/svg"
 width="500.000000pt" height="500.000000pt" viewBox="0 0 500.000000 500.000000"
 preserveAspectRatio="xMidYMid meet">
<metadata>
Created by potrace 1.16, written by Peter Selinger 2001-2019
</metadata>
<g transform="translate(0.000000,500.000000) scale(0.100000,-0.100000)"
fill="#ffffff" stroke="none">
<path d="M580 4372 c-63 -24 -86 -42 -120 -96 l-30 -47 0 -1704 c0 -1130 3
-1705 10 -1705 6 0 10 -6 10 -14 0 -7 17 -31 39 -52 79 -80 -73 -74 1957 -74
992 0 1812 4 1822 8 102 49 142 78 142 102 0 9 7 25 15 36 22 29 22 3379 0
3408 -8 11 -15 27 -15 35 0 20 -80 91 -101 91 -9 0 -30 7 -45 15 -25 13 -251
15 -1834 14 -1658 -1 -1809 -2 -1850 -17z m2112 -409 c19 -22 68 -145 68 -170
0 -11 5 -24 11 -30 5 -5 13 -32 17 -59 7 -47 8 -49 57 -67 28 -10 52 -23 53
-28 2 -5 10 -9 18 -9 8 0 23 -6 34 -12 15 -10 22 -10 32 0 6 6 20 12 29 12 10
0 19 3 21 8 5 11 103 72 116 72 7 0 12 4 12 9 0 8 32 24 88 42 13 4 27 3 35
-5 6 -7 19 -15 28 -18 9 -4 34 -28 55 -55 22 -26 48 -54 58 -62 21 -16 76 -71
112 -112 12 -13 36 -37 53 -52 37 -34 39 -64 8 -115 -13 -20 -27 -44 -30 -52
-4 -8 -16 -28 -27 -45 -11 -16 -22 -37 -26 -45 -3 -8 -12 -29 -21 -47 -16 -33
-14 -63 7 -123 31 -87 25 -79 95 -106 21 -8 102 -28 175 -44 80 -17 80 -19 80
-295 0 -218 -2 -243 -17 -257 -23 -19 -102 -48 -133 -48 -14 -1 -36 -7 -50
-15 -14 -8 -43 -14 -65 -15 -44 0 -59 -18 -75 -90 -4 -19 -14 -50 -21 -67 -12
-29 -11 -37 4 -62 9 -16 17 -36 17 -44 0 -8 7 -20 15 -27 8 -7 15 -18 15 -25
0 -7 18 -40 40 -73 50 -74 52 -108 9 -148 -17 -16 -47 -46 -67 -68 -21 -21
-50 -51 -66 -65 -44 -38 -79 -74 -101 -102 -30 -36 -75 -69 -97 -69 -19 0
-108 37 -118 49 -7 9 -80 51 -112 64 -16 6 -28 15 -28 19 0 11 -58 10 -64 -1
-3 -5 -17 -12 -31 -15 -13 -3 -45 -19 -70 -34 -37 -22 -45 -32 -45 -57 0 -16
-7 -43 -15 -59 -8 -15 -15 -38 -15 -50 0 -24 -47 -165 -60 -179 -4 -5 -117 -8
-251 -8 l-244 1 -22 27 c-13 16 -23 42 -23 59 0 18 -7 45 -15 60 -8 16 -15 45
-15 65 0 47 -45 127 -79 142 -14 6 -28 14 -31 17 -14 14 -74 40 -94 40 -25 0
-75 -22 -120 -54 -60 -41 -161 -87 -181 -82 -22 6 -309 285 -338 329 -17 26
-17 30 -1 65 29 68 78 167 101 204 29 47 29 59 -2 107 -13 22 -27 52 -31 67
-10 40 -42 63 -89 64 -22 0 -51 7 -65 15 -14 8 -39 14 -57 15 -43 0 -117 33
-137 61 -14 20 -16 58 -16 252 l0 229 29 29 c19 18 40 29 58 29 15 0 46 7 68
15 22 8 57 14 77 15 20 0 40 5 43 10 3 6 16 10 27 10 24 0 58 27 58 45 0 6 18
38 40 69 27 38 38 62 32 70 -9 11 -35 57 -93 164 -16 29 -29 58 -29 64 0 6 -7
19 -15 28 -27 30 0 69 170 237 154 154 192 182 210 154 3 -6 31 -22 63 -37 31
-14 80 -43 107 -63 44 -31 57 -36 103 -34 32 1 58 8 68 17 8 9 23 16 33 16 34
0 91 83 91 133 0 18 7 42 15 53 8 10 15 35 15 54 0 35 20 74 50 97 11 9 79 12
241 13 203 0 227 -2 241 -17z"/>
<path d="M2370 3375 c-30 -8 -75 -15 -100 -15 -25 0 -56 -7 -70 -15 -14 -8
-35 -14 -46 -15 -12 0 -49 -18 -82 -40 -33 -22 -64 -40 -70 -40 -6 0 -25 -12
-41 -27 -17 -16 -48 -41 -69 -58 -22 -16 -49 -43 -61 -60 -11 -16 -31 -41 -43
-55 -13 -14 -32 -42 -42 -63 -11 -20 -23 -37 -27 -37 -4 0 -10 -13 -14 -30 -4
-16 -11 -32 -16 -35 -5 -4 -9 -16 -9 -28 0 -12 -6 -33 -13 -47 -24 -45 -41
-245 -28 -333 6 -43 11 -96 11 -118 0 -21 4 -39 10 -39 5 0 12 -16 16 -37 4
-20 13 -48 20 -62 8 -14 14 -32 14 -38 0 -7 3 -13 8 -13 4 0 23 -26 41 -57 39
-66 55 -85 129 -156 69 -66 72 -68 272 -173 14 -7 59 -20 100 -29 126 -28 430
-8 481 31 8 6 41 24 74 40 33 16 62 32 63 37 2 4 8 7 13 7 6 0 24 10 41 23 29
20 53 44 162 157 18 19 36 45 40 58 4 12 12 22 17 22 5 0 9 8 9 19 0 10 7 24
15 31 8 7 15 23 15 36 0 12 4 25 9 28 5 3 19 37 30 75 12 39 26 73 31 76 13 8
13 308 1 321 -5 5 -19 36 -30 69 -40 116 -48 136 -59 147 -7 7 -12 20 -12 29
0 9 -7 22 -15 29 -8 7 -15 19 -15 28 0 8 -17 31 -37 51 -21 20 -54 54 -73 76
-37 41 -123 104 -180 131 -8 4 -29 18 -46 31 -17 13 -42 23 -56 23 -13 0 -33
7 -44 15 -10 8 -41 15 -69 15 -27 0 -77 7 -110 15 -71 17 -74 17 -145 0z m185
-471 c27 -24 27 -28 21 -92 -4 -37 -14 -80 -22 -96 -7 -16 -14 -42 -14 -58 0
-16 -7 -45 -15 -65 -8 -19 -15 -45 -15 -57 0 -11 -6 -41 -14 -66 -8 -25 -27
-90 -42 -145 -15 -55 -32 -106 -38 -114 -6 -7 -15 -23 -21 -34 -21 -42 -108
-48 -122 -9 -4 9 -14 22 -22 28 -20 15 -18 77 3 109 9 13 16 39 16 58 0 18 7
42 15 53 8 10 15 36 15 57 0 21 5 47 11 58 6 11 14 41 19 67 19 96 36 158 58
206 12 27 22 56 22 64 0 25 51 61 86 62 20 0 41 -9 59 -26z m-426 5 c58 -20
69 -83 24 -140 -15 -19 -67 -73 -115 -120 -49 -48 -88 -95 -88 -105 0 -26 28
-66 70 -100 19 -16 44 -40 55 -53 11 -14 39 -45 62 -69 55 -56 57 -90 9 -138
-36 -36 -50 -40 -90 -24 -26 9 -282 258 -324 314 -26 34 -29 92 -6 124 31 45
98 112 111 112 7 0 13 4 13 9 0 16 166 180 192 190 31 13 49 13 87 0z m686 -8
c17 -10 92 -80 168 -156 107 -107 138 -145 143 -171 12 -67 -5 -105 -85 -178
-18 -17 -79 -76 -135 -132 -109 -108 -142 -126 -182 -99 -57 37 -70 119 -24
148 11 6 20 16 20 22 0 5 35 43 79 85 106 101 110 111 74 163 -15 23 -32 44
-38 46 -20 8 -147 146 -156 170 -17 42 0 91 35 107 42 18 66 17 101 -5z"/>
</g>
</svg>
